# xmcd
#
# Track frame offsets:
#	150
#	2754
#	15213
#	25721
#	37451
#	48743
#	61285
#	77290
#	88926
#	102108
#	113688
#	131375
#	142640
#	154477
#	170163
#	181071
#	194816
#	211481
#	223181
#	234506
#
# Disc length: 3317 seconds
#
# Revision: 0
# Processed by: cddbd v1.5.2PL0 Copyright (c) Steve Scherf et al.
# Submitted via: dBpowerAMP V4.0
#
DISCID=100cf314
DTITLE=Various Artist - Camino del Sur
DYEAR=1900
DGENRE=Country
TTITLE0=Presentación - César Vidal
TTITLE1=Johnny B. Goode - Chuck Berry
TTITLE2=Blue Suede Shoes - Carl Perkins
TTITLE3=Great Balls of Fire - Jerry Lee Lewis
TTITLE4=Jailhouse Rock - Elvis Presley
TTITLE5=Ring of Fire - 
TTITLE6=The gambler - 
TTITLE7=On the road again - 
TTITLE8=Rose Garden - 
TTITLE9=Before the next teardrop falls - 
TTITLE10=Alabama songs - 
TTITLE11=Stand by your man - 
TTITLE12=Ford sixteen tons - 
TTITLE13=Unforgettable - 
TTITLE14=Hello Dolly - 
TTITLE15=Stand by Me - 
TTITLE16=Old Man River - 
TTITLE17=What a friend we have in Jesus - 
TTITLE18=Amazing Grace - 
TTITLE19=Constitution march - 
EXTD=César Vidal, Camino del Sur
EXTT0=
EXTT1=
EXTT2=
EXTT3=
EXTT4=
EXTT5=
EXTT6=
EXTT7=
EXTT8=
EXTT9=
EXTT10=
EXTT11=
EXTT12=
EXTT13=
EXTT14=
EXTT15=
EXTT16=
EXTT17=
EXTT18=
EXTT19=
PLAYORDER=
